<?xml version="1.0" encoding="UTF-8"?>
<svg id="Layer_1" xmlns="http://www.w3.org/2000/svg" version="1.1" viewBox="0 0 775.14 127.74">
  <!-- Generator: Adobe Illustrator 29.8.5, SVG Export Plug-In . SVG Version: 2.1.1 Build 2)  -->
  <defs>
    <style>
      .st0 {
        fill: #8C6840;
      }
    </style>
  </defs>
  <path class="st0" d="M0,99.22V29h19.49c5.96-.08,11.9.66,17.65,2.2,4.77,1.28,9.22,3.54,13.07,6.64,3.56,2.96,6.34,6.73,8.12,11,1.93,4.82,2.88,9.97,2.8,15.16.1,5.21-.85,10.39-2.79,15.22-1.77,4.27-4.56,8.04-8.11,11-3.84,3.11-8.29,5.4-13.06,6.7-5.74,1.59-11.68,2.36-17.64,2.28l-19.53.02ZM22.44,79.22c5.26,0,9.34-1.25,12.22-3.75,2.88-2.5,4.34-6.33,4.34-11.47s-1.44-8.92-4.32-11.38-6.96-3.62-12.23-3.62v30.22Z"/>
  <path class="st0" d="M167.44,28.87h23.81v70.27h-23.78l-.03-70.27Z"/>
  <path class="st0" d="M559.58,63.82c-.03-4.92.95-9.8,2.89-14.33,3.73-8.87,10.78-15.92,19.64-19.66,9.16-3.86,19.5-3.86,28.66,0,8.87,3.73,15.92,10.78,19.66,19.64,3.86,9.16,3.86,19.5,0,28.66-3.73,8.86-10.78,15.9-19.63,19.64-9.16,3.87-19.5,3.87-28.66,0-8.86-3.74-15.92-10.78-19.66-19.64-1.93-4.52-2.92-9.39-2.9-14.31ZM581.7,63.82c-.01,1.97.38,3.93,1.16,5.74,1.5,3.54,4.32,6.35,7.86,7.85,1.81.77,3.77,1.16,5.74,1.15,1.97.02,3.93-.38,5.74-1.16,1.75-.75,3.34-1.82,4.69-3.16,1.34-1.35,2.41-2.94,3.16-4.69.77-1.81,1.16-3.77,1.15-5.74,0-1.98-.4-3.94-1.2-5.76-1.5-3.53-4.32-6.34-7.85-7.84-3.67-1.55-7.82-1.55-11.49,0-1.74.75-3.32,1.83-4.66,3.17-1.35,1.34-2.42,2.94-3.16,4.69-.77,1.81-1.16,3.77-1.14,5.74h0Z"/>
  <path class="st0" d="M715.31,28.61h18.43l19.4,27.07v-27.09h22v70.27h-18.5l-19.29-27v27h-22l-.04-70.25Z"/>
  <path class="st0" d="M329.72.07h23.82l-33.37,127.73h-23.82L329.72.07Z"/>
  <path class="st0" d="M446.65,0h23.81l-33.37,127.74h-23.81L446.65,0Z"/>
  <g>
    <path class="st0" d="M910.37,69.48h-11.12l-3.13,7.41h-3.21l12-27.38,11.73,27.38h-3.21l-3.06-7.41ZM909.24,66.73l-4.39-10.45-4.46,10.45h8.85Z"/>
    <path class="st0" d="M948.66,63.7h10.89v.63c.03,2.95-.85,5.83-2.52,8.26-2.28,3.05-5.89,4.8-9.7,4.7-7.46.27-13.72-5.56-13.99-13.01s5.56-13.72,13.01-13.99c.35-.01.69-.01,1.04,0,2.88-.05,5.69.86,8,2.58,1.13.89,2.14,1.93,3,3.09l-2.16,2c-.69-1.01-1.52-1.92-2.46-2.7-1.78-1.47-4.04-2.25-6.35-2.19-5.95.16-10.63,5.12-10.47,11.06.16,5.69,4.72,10.28,10.41,10.47,3.26.08,6.31-1.6,8-4.39.64-1.14,1.01-2.41,1.06-3.72h-7.76v-2.79Z"/>
    <path class="st0" d="M994.08,53.42h-10.65v7.75h10.34v2.72h-10.34v10.14h10.65v2.74h-13.54v-26.08h13.55v2.73Z"/>
    <path class="st0" d="M1015.08,76.78v-27.21l20.35,21.31v-20.23h2.9v27.29l-20.37-21.33v20.17h-2.88Z"/>
    <path class="st0" d="M1080.69,56.39c-1-.99-2.15-1.81-3.41-2.43-1.41-.64-2.95-.98-4.5-1-6,0-10.49,4.86-10.49,10.89-.1,5.77,4.5,10.53,10.27,10.63.09,0,.18,0,.27,0,1.69-.02,3.35-.44,4.85-1.22,1.11-.57,2.12-1.3,3-2.19v3.6c-2.29,1.65-5.05,2.54-7.87,2.55-7.46.25-13.7-5.6-13.95-13.06-.25-7.46,5.6-13.7,13.06-13.95.34-.01.69,0,1.03,0,2.79-.04,5.51.87,7.72,2.58l.02,3.59Z"/>
    <path class="st0" d="M1107.2,65.5l-8.58-14.88h3.41l6.66,11.67,6.73-11.67h3.36l-8.64,14.89v11.23h-2.89l-.05-11.24Z"/>
  </g>
</svg>